<svg width="24" height="24" viewBox="0 0 24 24" fill="none" xmlns="http://www.w3.org/2000/svg">
<path fill-rule="evenodd" clip-rule="evenodd" d="M4 0C2.89551 0 2 0.895508 2 2V3H1C0.447754 3 0 3.44727 0 4V7C0 7.55273 0.447754 8 1 8H2V22H4V24H8V22H16V24H20V22H22V8H23C23.377 8 23.7053 7.79102 23.8757 7.4834C23.9548 7.34082 24 7.17578 24 7V4C24 3.44727 23.5522 3 23 3H22V2C22 0.895508 21.1045 0 20 0H4ZM4 3C4 2.44727 4.44775 2 5 2H19C19.5522 2 20 2.44727 20 3V12C20 12.5527 19.5522 13 19 13H5C4.44775 13 4 12.5527 4 12V3ZM4 18H8V20H4V18ZM16 18H20V20H16V18Z" fill="#D1D1D1"/>
</svg>
