<svg width="24" height="24" viewBox="0 0 24 24" fill="none" xmlns="http://www.w3.org/2000/svg">
<path d="M1 14C1 13.4477 1.44772 13 2 13H4C4.55228 13 5 13.4477 5 14V22C5 22.5523 4.55228 23 4 23H2C1.44772 23 1 22.5523 1 22V14Z" fill="#D1D1D1"/>
<path d="M7 3C7 2.44772 7.44772 2 8 2H10C10.5523 2 11 2.44772 11 3V22C11 22.5523 10.5523 23 10 23H8C7.44772 23 7 22.5523 7 22V3Z" fill="#D1D1D1"/>
<path d="M13 11C13 10.4477 13.4477 10 14 10H16C16.5523 10 17 10.4477 17 11V22C17 22.5523 16.5523 23 16 23H14C13.4477 23 13 22.5523 13 22V11Z" fill="#D1D1D1"/>
<path d="M19 7C19 6.44772 19.4477 6 20 6H22C22.5523 6 23 6.44772 23 7V22C23 22.5523 22.5523 23 22 23H20C19.4477 23 19 22.5523 19 22V7Z" fill="#D1D1D1"/>
</svg>
