<svg width="24" height="24" viewBox="0 0 24 24" fill="none" xmlns="http://www.w3.org/2000/svg">
<path fill-rule="evenodd" clip-rule="evenodd" d="M8.72003 1C8.08728 1 7.49186 1.29942 7.11454 1.80735L5.48571 4H3C1.89543 4 1 4.89543 1 6V19C1 20.1046 1.89543 21 3 21H21C22.1046 21 23 20.1046 23 19V6C23 4.89543 22.1046 4 21 4H18.5143L16.8855 1.80735C16.5081 1.29942 15.9127 1 15.28 1H8.72003ZM12.2238 18.9965C15.9119 18.8806 18.8806 15.9119 18.9965 12.2238C15.6346 12.9881 12.9881 15.6346 12.2238 18.9965ZM18.9965 11.7762C18.8806 8.08809 15.9119 5.11935 12.2238 5.00351C12.9881 8.36543 15.6346 11.0119 18.9965 11.7762ZM11.7762 5.00351C8.08809 5.11935 5.11935 8.08809 5.00351 11.7762C8.36543 11.0119 11.0119 8.36543 11.7762 5.00351ZM5.00351 12.2238C8.36543 12.9881 11.0119 15.6346 11.7762 18.9965C8.08809 18.8806 5.11935 15.9119 5.00351 12.2238Z" fill="white"/>
</svg>
