<svg width="14" height="14" viewBox="0 0 14 14" fill="none" xmlns="http://www.w3.org/2000/svg">
<path d="M9.23862 3.23845C7.9565 3.23845 6.89762 2.40624 5.28567 2.40624C4.6886 2.40624 4.15377 2.51113 3.65764 2.69366C3.7264 2.51409 3.75566 2.32182 3.74344 2.12992C3.70104 1.44957 3.14331 0.903846 2.46219 0.87614C1.69673 0.844989 1.06641 1.45629 1.06641 2.21484C1.06641 2.67005 1.29363 3.07198 1.64062 3.31411V12.5508C1.64062 12.8679 1.89771 13.125 2.21484 13.125H2.59766C2.91479 13.125 3.17188 12.8679 3.17188 12.5508V10.2922C3.84924 10.0035 4.69312 9.76289 5.90982 9.76289C7.19196 9.76289 8.25082 10.5951 9.86277 10.5951C11.0152 10.5951 11.9363 10.2053 12.7938 9.61754C13.0015 9.47516 13.125 9.23875 13.125 8.98691V3.17055C13.125 2.61085 12.5443 2.24056 12.0367 2.47632C11.2152 2.85789 10.2075 3.23845 9.23862 3.23845V3.23845Z" fill="#FF9D0A"/>
</svg>
