<svg width="69" height="50" viewBox="0 0 69 50" fill="none" xmlns="http://www.w3.org/2000/svg">
<rect x="14" y="5" width="40" height="40" rx="8" fill="#2730F5"/>
<path fill-rule="evenodd" clip-rule="evenodd" d="M24 20C24 17.7909 25.7909 16 28 16H40C42.2091 16 44 17.7909 44 20C44 22.2091 42.2091 24 40 24H28C25.7909 24 24 22.2091 24 20ZM31 20C31 21.1046 30.1046 22 29 22C27.8954 22 27 21.1046 27 20C27 18.8954 27.8954 18 29 18C30.1046 18 31 18.8954 31 20ZM24 30C24 27.7909 25.7909 26 28 26H40C42.2091 26 44 27.7909 44 30C44 32.2091 42.2091 34 40 34H28C25.7909 34 24 32.2091 24 30ZM41 30C41 31.1046 40.1046 32 39 32C37.8954 32 37 31.1046 37 30C37 28.8954 37.8954 28 39 28C40.1046 28 41 28.8954 41 30Z" fill="#D1D1D1"/>
</svg>
