<svg width="70" height="50" viewBox="0 0 70 50" fill="none" xmlns="http://www.w3.org/2000/svg">
<path fill-rule="evenodd" clip-rule="evenodd" d="M25 20C25 17.7909 26.7909 16 29 16H41C43.2091 16 45 17.7909 45 20C45 22.2091 43.2091 24 41 24H29C26.7909 24 25 22.2091 25 20ZM32 20C32 21.1046 31.1046 22 30 22C28.8954 22 28 21.1046 28 20C28 18.8954 28.8954 18 30 18C31.1046 18 32 18.8954 32 20ZM25 30C25 27.7909 26.7909 26 29 26H41C43.2091 26 45 27.7909 45 30C45 32.2091 43.2091 34 41 34H29C26.7909 34 25 32.2091 25 30ZM42 30C42 31.1046 41.1046 32 40 32C38.8954 32 38 31.1046 38 30C38 28.8954 38.8954 28 40 28C41.1046 28 42 28.8954 42 30Z" fill="#D1D1D1"/>
</svg>
